<?xml version="1.0" encoding="UTF-8"?>
<svg width="237px" height="56px" viewBox="0 0 237 56" version="1.1" xmlns="http://www.w3.org/2000/svg" xmlns:xlink="http://www.w3.org/1999/xlink">
    <!-- Generator: Sketch 55.2 (78181) - https://sketchapp.com -->
    <title>Group</title>
    <desc>Created with Sketch.</desc>
    <defs>
        <polygon id="path-1" points="0.06 0.48 48.87 0.48 48.87 43.33 0.06 43.33"></polygon>
        <polygon id="path-3" points="0.99 0.62 184.41 0.62 184.41 41.64 0.99 41.64"></polygon>
    </defs>
    <g id="Page-1" stroke="none" stroke-width="1" fill="none" fill-rule="evenodd">
        <g id="Group">
            <g id="Group-3">
                <mask id="mask-2" fill="white">
                    <use xlink:href="#path-1"></use>
                </mask>
                <g id="Clip-2"></g>
                <path d="M39.34,28.23 C38.33,28.57 36.71,28.97 34.5,29.45 C32.3,29.92 30.86,30.39 30.18,30.83 C29.15,31.57 28.63,32.5 28.63,33.63 C28.63,34.75 29.05,35.7 29.88,36.519 C30.71,37.33 31.76,37.74 33.05,37.74 C34.49,37.74 35.85,37.269 37.15,36.33 C38.11,35.62 38.74,34.74 39.04,33.69 C39.25,33.02 39.35,31.72 39.35,29.82 L39.35,28.23 L39.34,28.23 Z M28.71,21.78 L21.5,20.48 C22.31,17.57 23.7,15.43 25.68,14.03 C27.67,12.64 30.6,11.94 34.5,11.94 C38.05,11.94 40.69,12.36 42.42,13.2 C44.15,14.04 45.37,15.1 46.08,16.39 C46.78,17.68 47.14,20.05 47.14,23.5 L47.05,32.78 C47.05,35.42 47.18,37.37 47.44,38.62 C47.69,39.87 48.17,41.22 48.87,42.64 L41,42.64 C40.8,42.11 40.54,41.33 40.24,40.29 C40.11,39.82 40.02,39.51 39.96,39.35 C38.6,40.67 37.15,41.66 35.61,42.32 C34.06,43 32.41,43.33 30.66,43.33 C27.57,43.33 25.13,42.49 23.35,40.82 C21.56,39.14 20.68,37.019 20.68,34.45 C20.68,32.76 21.08,31.25 21.9,29.91 C22.71,28.58 23.85,27.57 25.31,26.86 C26.77,26.16 28.88,25.54 31.63,25.01 C35.34,24.32 37.91,23.66 39.34,23.06 L39.34,22.27 C39.34,20.74 38.96,19.65 38.21,19 C37.46,18.35 36.04,18.03 33.94,18.03 C32.52,18.03 31.42,18.31 30.63,18.87 C29.84,19.41 29.2,20.38 28.71,21.78 Z M0,12.62 L4.41,12.62 L4.41,10.35 C4.41,7.83 4.68,5.94 5.22,4.69 C5.76,3.45 6.75,2.43 8.18,1.65 C9.63,0.87 11.45,0.48 13.65,0.48 C15.92,0.48 18.13,0.82 20.3,1.49 L19.23,7.04 C17.97,6.73 16.75,6.59 15.58,6.59 C14.42,6.59 13.6,6.85 13.1,7.39 C12.6,7.93 12.36,8.96 12.36,10.49 L12.36,12.61 L18.3,12.61 L18.3,18.86 L12.36,18.86 L12.36,42.64 L4.41,42.64 L4.41,18.87 L0,18.87 L0,12.62 L0,12.62 Z" id="Fill-1" fill="#232735" mask="url(#mask-2)"></path>
            </g>
            <path d="M77.06,12.62 L84.39,12.62 L84.39,16.71 C87.01,13.52 90.13,11.93 93.75,11.93 C95.67,11.93 97.34,12.33 98.75,13.12 C100.17,13.91 101.33,15.11 102.24,16.71 C103.55,15.11 104.98,13.91 106.51,13.12 C108.03,12.33 109.67,11.93 111.4,11.93 C113.6,11.93 115.47,12.38 117,13.28 C118.52,14.17 119.66,15.49 120.42,17.22 C120.97,18.5 121.24,20.58 121.24,23.45 L121.24,42.65 L113.3,42.65 L113.3,25.49 C113.3,22.51 113.03,20.59 112.48,19.72 C111.75,18.59 110.62,18.02 109.09,18.02 C107.97,18.02 106.93,18.36 105.94,19.04 C104.97,19.72 104.26,20.71 103.83,22.02 C103.4,23.33 103.17,25.4 103.17,28.23 L103.17,42.65 L95.23,42.65 L95.23,26.19 C95.23,23.27 95.09,21.38 94.81,20.53 C94.53,19.68 94.09,19.05 93.5,18.64 C92.9,18.22 92.1,18.01 91.08,18.01 C89.85,18.01 88.75,18.34 87.78,19 C86.8,19.66 86.09,20.61 85.67,21.86 C85.25,23.11 85.03,25.16 85.03,28.05 L85.03,42.64 L77.09,42.64 L77.09,12.62 L77.06,12.62" id="Fill-4" fill="#232735"></path>
            <polyline id="Fill-5" fill="#232735" points="126.81 42.65 126.81 1.19 134.77 1.19 134.77 23.19 144.06 12.62 153.85 12.62 143.59 23.59 154.58 42.65 146.02 42.65 138.46 29.17 134.77 33.04 134.77 42.65 126.81 42.65"></polyline>
            <path d="M174.92,28.23 C173.91,28.57 172.3,28.97 170.08,29.45 C167.88,29.92 166.44,30.39 165.76,30.83 C164.73,31.57 164.21,32.5 164.21,33.63 C164.21,34.75 164.63,35.7 165.46,36.519 C166.29,37.33 167.34,37.74 168.63,37.74 C170.07,37.74 171.43,37.269 172.73,36.33 C173.7,35.62 174.32,34.74 174.62,33.69 C174.83,33.02 174.93,31.72 174.93,29.82 L174.93,28.23 L174.92,28.23 Z M164.29,21.78 L157.08,20.48 C157.89,17.57 159.28,15.43 161.26,14.03 C163.25,12.64 166.18,11.94 170.08,11.94 C173.63,11.94 176.27,12.36 178,13.2 C179.73,14.04 180.95,15.1 181.66,16.39 C182.36,17.68 182.72,20.05 182.72,23.5 L182.63,32.78 C182.63,35.42 182.76,37.37 183.02,38.62 C183.27,39.87 183.75,41.22 184.45,42.64 L176.58,42.64 C176.38,42.11 176.12,41.33 175.82,40.29 C175.69,39.82 175.6,39.51 175.54,39.35 C174.18,40.67 172.73,41.66 171.19,42.32 C169.65,42.98 168,43.3 166.24,43.3 C163.15,43.3 160.71,42.46 158.93,40.79 C157.14,39.11 156.26,36.99 156.26,34.42 C156.26,32.73 156.67,31.22 157.48,29.88 C158.29,28.55 159.43,27.54 160.89,26.83 C162.35,26.13 164.46,25.51 167.21,24.98 C170.92,24.29 173.49,23.63 174.92,23.03 L174.92,22.24 C174.92,20.71 174.54,19.62 173.79,18.97 C173.04,18.32 171.62,18 169.52,18 C168.1,18 167,18.28 166.21,18.84 C165.42,19.41 164.78,20.38 164.29,21.78 L164.29,21.78 Z" id="Fill-6" fill="#232735"></path>
            <path d="M196.32,42.65 L188.38,42.65 L188.38,12.62 L195.75,12.62 L195.75,16.89 C197.01,14.87 198.15,13.54 199.16,12.9 C200.17,12.26 201.31,11.93 202.6,11.93 C204.41,11.93 206.15,12.43 207.83,13.44 L205.37,20.36 C204.04,19.5 202.79,19.07 201.64,19.07 C200.52,19.07 199.58,19.37 198.81,19.99 C198.03,20.6 197.43,21.71 196.99,23.31 C196.55,24.91 196.32,28.27 196.32,33.38 L196.32,42.65" id="Fill-7" fill="#232735"></path>
            <path d="M226.87,12.62 L226.87,18.95 L221.45,18.95 L221.45,31.05 C221.45,33.5 221.5,34.93 221.6,35.34 C221.71,35.75 221.94,36.07 222.3,36.34 C222.67,36.6 223.12,36.74 223.64,36.74 C224.38,36.74 225.45,36.48 226.84,35.98 L227.51,42.14 C225.66,42.93 223.57,43.33 221.23,43.33 C219.8,43.33 218.51,43.09 217.36,42.62 C216.21,42.14 215.37,41.51 214.83,40.75 C214.29,39.99 213.92,38.96 213.71,37.65 C213.55,36.73 213.46,34.86 213.46,32.05 L213.46,18.95 L209.81,18.95 L209.81,12.62 L213.46,12.62 L213.46,6.65 L221.43,2.02 L221.43,12.63 L226.87,12.63 L226.87,12.62" id="Fill-8" fill="#232735"></path>
            <path d="M152.81,46.57 L152.81,48.17 L154.26,48.17 L154.26,48.94 L152.81,48.94 L152.81,51.94 C152.81,52.63 153,53.02 153.57,53.02 C153.83,53.02 154.03,52.99 154.16,52.95 L154.21,53.71 C154.01,53.79 153.71,53.85 153.31,53.85 C152.84,53.85 152.46,53.7 152.22,53.42 C151.93,53.12 151.83,52.63 151.83,51.97 L151.83,48.94 L150.97,48.94 L150.97,48.17 L151.83,48.17 L151.83,46.84 L152.81,46.57" id="Fill-9" fill="#232735"></path>
            <path d="M155.4,45.57 L156.41,45.57 L156.41,49.04 L156.43,49.04 C156.59,48.75 156.84,48.5 157.15,48.33 C157.45,48.16 157.8,48.04 158.18,48.04 C158.93,48.04 160.12,48.5 160.12,50.42 L160.12,53.73 L159.11,53.73 L159.11,50.54 C159.11,49.64 158.78,48.89 157.82,48.89 C157.17,48.89 156.65,49.35 156.47,49.9 C156.41,50.04 156.4,50.19 156.4,50.38 L156.4,53.73 L155.39,53.73 L155.39,45.57 L155.4,45.57" id="Fill-10" fill="#232735"></path>
            <path d="M165.3,50.41 C165.31,49.769 165.04,48.77 163.9,48.77 C162.88,48.77 162.43,49.71 162.35,50.41 L165.3,50.41 Z M162.33,51.13 C162.35,52.5 163.23,53.06 164.24,53.06 C164.96,53.06 165.4,52.93 165.78,52.769 L165.95,53.49 C165.59,53.65 164.99,53.84 164.1,53.84 C162.39,53.84 161.37,52.71 161.37,51.04 C161.37,49.37 162.36,48.04 163.98,48.04 C165.79,48.04 166.28,49.64 166.28,50.66 C166.28,50.87 166.26,51.03 166.24,51.13 L162.33,51.13 L162.33,51.13 Z" id="Fill-11" fill="#232735"></path>
            <path d="M169.96,49.67 C169.96,49.1 169.95,48.62 169.91,48.17 L170.81,48.17 L170.87,49.09 L170.89,49.09 C171.17,48.56 171.81,48.05 172.73,48.05 C173.5,48.05 174.69,48.51 174.69,50.42 L174.69,53.74 L173.68,53.74 L173.68,50.54 C173.68,49.64 173.35,48.9 172.39,48.9 C171.72,48.9 171.21,49.37 171.03,49.93 C170.99,50.06 170.96,50.23 170.96,50.4 L170.96,53.74 L169.95,53.74 L169.95,49.67 L169.96,49.67" id="Fill-12" fill="#232735"></path>
            <path d="M179.86,50.41 C179.87,49.769 179.6,48.77 178.46,48.77 C177.44,48.77 176.99,49.71 176.91,50.41 L179.86,50.41 Z M176.9,51.13 C176.92,52.5 177.8,53.06 178.81,53.06 C179.53,53.06 179.97,52.93 180.35,52.769 L180.52,53.49 C180.16,53.65 179.56,53.84 178.67,53.84 C176.96,53.84 175.94,52.71 175.94,51.04 C175.94,49.37 176.93,48.04 178.55,48.04 C180.36,48.04 180.85,49.64 180.85,50.66 C180.85,50.87 180.83,51.03 180.82,51.13 L176.9,51.13 L176.9,51.13 Z" id="Fill-13" fill="#232735"></path>
            <path d="M182.53,48.17 L183.32,49.36 C183.53,49.67 183.7,49.96 183.88,50.27 L183.91,50.27 C184.09,49.94 184.28,49.65 184.46,49.35 L185.24,48.17 L186.33,48.17 L184.44,50.86 L186.39,53.73 L185.24,53.73 L184.42,52.48 C184.2,52.16 184.02,51.85 183.82,51.52 L183.8,51.52 C183.62,51.85 183.42,52.15 183.21,52.48 L182.41,53.73 L181.3,53.73 L183.28,50.89 L181.4,48.17 L182.53,48.17" id="Fill-14" fill="#232735"></path>
            <path d="M188.74,46.57 L188.74,48.17 L190.19,48.17 L190.19,48.94 L188.74,48.94 L188.74,51.94 C188.74,52.63 188.93,53.02 189.5,53.02 C189.76,53.02 189.96,52.99 190.09,52.95 L190.14,53.71 C189.94,53.79 189.64,53.85 189.24,53.85 C188.77,53.85 188.39,53.7 188.15,53.42 C187.86,53.12 187.76,52.63 187.76,51.97 L187.76,48.94 L186.9,48.94 L186.9,48.17 L187.76,48.17 L187.76,46.84 L188.74,46.57" id="Fill-15" fill="#232735"></path>
            <path d="M193.68,53.731 L195.1,53.731 L195.1,48.14 L193.68,48.14 L193.68,53.731 Z M195.19,46.57 C195.19,46.99 194.88,47.33 194.39,47.33 C193.92,47.33 193.61,47 193.61,46.57 C193.61,46.13 193.93,45.8 194.4,45.8 C194.88,45.8 195.17,46.14 195.19,46.57 L195.19,46.57 Z" id="Fill-16" fill="#232735"></path>
            <path d="M196.62,49.8 C196.62,49.16 196.61,48.62 196.57,48.13 L197.79,48.13 L197.85,48.96 L197.88,48.96 C198.15,48.519 198.66,48.01 199.6,48.01 C200.33,48.01 200.91,48.42 201.15,49.04 L201.17,49.04 C201.37,48.73 201.6,48.5 201.86,48.34 C202.17,48.12 202.53,48.01 202.99,48.01 C203.92,48.01 204.86,48.64 204.86,50.43 L204.86,53.73 L203.48,53.73 L203.48,50.64 C203.48,49.71 203.16,49.16 202.48,49.16 C202,49.16 201.64,49.5 201.49,49.91 C201.46,50.05 201.42,50.22 201.42,50.38 L201.42,53.73 L200.04,53.73 L200.04,50.49 C200.04,49.71 199.73,49.16 199.08,49.16 C198.55,49.16 198.2,49.57 198.07,49.96 C198.01,50.1 197.99,50.26 197.99,50.42 L197.99,53.73 L196.61,53.73 L196.61,49.8 L196.62,49.8" id="Fill-17" fill="#232735"></path>
            <path d="M207.78,51.38 C207.78,51.52 207.79,51.64 207.83,51.77 C207.97,52.34 208.47,52.76 209.07,52.76 C209.97,52.76 210.49,52.01 210.49,50.91 C210.49,49.92 210.01,49.12 209.1,49.12 C208.51,49.12 207.97,49.55 207.84,50.17 C207.81,50.28 207.78,50.41 207.78,50.53 L207.78,51.38 Z M206.36,50 C206.36,49.269 206.34,48.67 206.31,48.14 L207.55,48.14 L207.62,49 L207.64,49 C208.05,48.37 208.71,48.01 209.56,48.01 C210.85,48.01 211.91,49.11 211.91,50.86 C211.91,52.88 210.63,53.86 209.36,53.86 C208.66,53.86 208.07,53.56 207.79,53.11 L207.77,53.11 L207.77,56 L206.36,56 L206.36,50 L206.36,50 Z" id="Fill-18" fill="#232735"></path>
            <path d="M216.05,50.99 C215.05,50.97 214.1,51.19 214.1,52.04 C214.1,52.59 214.46,52.84 214.9,52.84 C215.46,52.84 215.88,52.47 216,52.07 C216.03,51.97 216.05,51.85 216.05,51.76 L216.05,50.99 Z M216.23,53.73 L216.14,53.11 L216.11,53.11 C215.77,53.55 215.18,53.86 214.46,53.86 C213.33,53.86 212.7,53.04 212.7,52.19 C212.7,50.78 213.95,50.07 216.02,50.08 L216.02,49.99 C216.02,49.62 215.87,49.01 214.88,49.01 C214.33,49.01 213.76,49.18 213.38,49.42 L213.1,48.5 C213.51,48.25 214.24,48.01 215.12,48.01 C216.91,48.01 217.43,49.15 217.43,50.36 L217.43,52.38 C217.43,52.88 217.45,53.38 217.51,53.72 L216.23,53.72 L216.23,53.73 L216.23,53.73 Z" id="Fill-19" fill="#232735"></path>
            <path d="M223.03,53.55 C222.73,53.69 222.15,53.84 221.45,53.84 C219.71,53.84 218.57,52.73 218.57,50.99 C218.57,49.31 219.72,48.01 221.68,48.01 C222.2,48.01 222.73,48.12 223.05,48.269 L222.8,49.33 C222.57,49.23 222.24,49.11 221.73,49.11 C220.65,49.11 220.01,49.9 220.02,50.92 C220.02,52.07 220.77,52.72 221.73,52.72 C222.22,52.72 222.57,52.62 222.84,52.5 L223.03,53.55" id="Fill-20" fill="#232735"></path>
            <path d="M225.87,46.54 L225.87,48.14 L227.21,48.14 L227.21,49.2 L225.87,49.2 L225.87,51.67 C225.87,52.35 226.05,52.7 226.59,52.7 C226.83,52.7 227.01,52.67 227.14,52.63 L227.16,53.71 C226.95,53.79 226.59,53.85 226.14,53.85 C225.62,53.85 225.19,53.68 224.92,53.39 C224.62,53.07 224.48,52.56 224.48,51.83 L224.48,49.2 L223.68,49.2 L223.68,48.14 L224.48,48.14 L224.48,46.88 L225.87,46.54" id="Fill-21" fill="#232735"></path>
            <g id="Group-25" transform="translate(52.000000, 1.000000)">
                <mask id="mask-4" fill="white">
                    <use xlink:href="#path-3"></use>
                </mask>
                <g id="Clip-23"></g>
                <path d="M8.96,17.16 L8.96,12.52 C8.96,11.88 8.27,11.49 7.72,11.81 L2.59,14.85 C1.6,15.44 0.99,16.51 0.99,17.67 L0.99,41.64 C2.97,41.64 6.99,41.64 8.96,41.64 L8.96,21.54 C10.2,16.5 18.18,26.09 22.61,11.09 C17.47,14.93 11.42,10.01 8.96,17.16" id="Fill-22" fill="#6FB744" mask="url(#mask-4)"></path>
                <path d="M182.87,6.12 C181.74,7.18 179.97,7.12 178.92,5.99 C177.86,4.86 177.92,3.09 179.05,2.04 C180.18,0.98 181.95,1.04 183,2.17 C184.05,3.3 183.99,5.07 182.87,6.12 Z M180.95,0.62 C179.04,0.62 177.49,2.17 177.49,4.08 C177.49,5.99 179.04,7.54 180.95,7.54 C182.86,7.54 184.410048,5.99 184.410048,4.08 C184.42,2.17 182.87,0.62 180.95,0.62 L180.95,0.62 Z" id="Fill-24" fill="#232735" mask="url(#mask-4)"></path>
            </g>
            <path d="M232.31,4.83 L232.8,4.83 C233.11,4.83 233.31,4.82 233.39,4.79 C233.47,4.76 233.53,4.72 233.57,4.65 C233.61,4.58 233.64,4.5 233.64,4.41 C233.64,4.3 233.61,4.21 233.55,4.14 C233.49,4.07 233.41,4.03 233.3,4.01 C233.25,4 233.09,4 232.82,4 L232.31,4 L232.31,4.83 Z M231.65,6.71 L231.65,3.46 L233.03,3.46 C233.38,3.46 233.63,3.49 233.79,3.55 C233.95,3.61 234.07,3.71 234.17,3.86 C234.26,4.01 234.31,4.18 234.31,4.37 C234.31,4.61 234.24,4.82 234.09,4.97 C233.95,5.13 233.73,5.23 233.45,5.27 C233.59,5.35 233.71,5.44 233.8,5.54 C233.89,5.64 234.02,5.82 234.17,6.07 L234.57,6.7 L233.78,6.7 L233.32,6 C233.15,5.75 233.04,5.59 232.97,5.52 C232.91,5.45 232.84,5.41 232.77,5.38 C232.7,5.36 232.59,5.34 232.44,5.34 L232.31,5.34 L232.31,6.7 L231.65,6.7 L231.65,6.71 L231.65,6.71 Z" id="Fill-26" fill="#232735"></path>
        </g>
    </g>
</svg>